<svg xmlns="http://www.w3.org/2000/svg" viewBox="0 0 512 512" width="512" height="512">
  <rect width="512" height="512" rx="112" ry="112" fill="#0e0e0d" />
  <g transform="translate(110.35,96) scale(5.282)" fill="#fafaf8">
    <g transform="translate(-61.628656,-87.159944)">
      <g transform="matrix(0.55139349,0,0,-0.55139349,61.628655,147.7378)">
        <path d="m 54.456193,80.053008 c -1.311365,-1.048401 -1.924234,-2.373925 -1.956228,-3.966767 l 1.7e-5,-19.770276 c 0.08228,-4.190893 4.660656,-6.45651 8.043793,-3.966732 L 98.043789,81.12396 c 1.311397,1.048427 1.924246,2.374012 1.956241,3.966767 l -2e-5,19.770273 c -0.0822,4.18641 -4.654176,6.45832 -8.043796,3.96659 z" />
        <path d="m 47.5,76.086241 c -0.03237,1.611343 -0.658915,2.929495 -1.95621,3.966767 L 8.0438071,108.82777 c -2.7651664,2.0358 -7.6715903,0.99864 -8.03985997,-3.76813 L 0,85.090727 C 0.03278342,83.445156 0.6860305,82.139419 1.9561929,81.12396 L 39.456193,52.349198 c 3.380894,-2.489106 7.961477,-0.225833 8.043779,3.966731 z" />
        <path d="m 53.043807,41.594246 c -1.884708,-1.387677 -4.202823,-1.387738 -6.087614,0 L 8.0438071,71.45277 C 4.6644698,73.940724 0.08336455,71.681233 0,67.486003 V 47.715727 C 0.03278342,46.070156 0.6860305,44.764419 1.9561929,43.74896 L 46.956193,9.219246 c 1.884737,-1.3877044 4.202825,-1.3877428 6.087614,0 l 45,34.529714 c 1.311397,1.048427 1.924246,2.374012 1.956243,3.966767 l -3e-5,19.770276 c -0.08228,4.190921 -4.660693,6.4565 -8.043788,3.966731 z" />
        <path d="M 76.956193,22.567865 C 75.696759,21.560981 75.032946,20.260009 75,18.601098 V 5 c 0.05639,-2.8381818 2.17028,-4.94443139 5,-5 h 15 c 2.833155,0.05563606 4.944285,2.1659054 5,5 v 25.111003 c -0.08228,4.190921 -4.660698,6.4565 -8.043793,3.966731 z" />
        <path d="M 8.0438071,34.07777 C 4.6644698,36.565724 0.08336455,34.306233 0,30.111003 V 5 C 0.05564821,2.1662249 2.1666028,0.05564079 5,0 h 15 c 2.83438,0.05566012 4.944458,2.167333 5,5 v 13.601098 c -0.03236,1.611281 -0.658889,2.929442 -1.956216,3.966767 z" />
      </g>
    </g>
  </g>
</svg>
