<svg xmlns="http://www.w3.org/2000/svg" viewBox="0 0 800 500" preserveAspectRatio="xMidYMid slice">
  <rect width="800" height="500" fill="#efece5" />
  <g stroke="#132e54" stroke-width="1.2" fill="none">
    <rect x="120" y="140" width="220" height="220" rx="6" />
    <rect x="460" y="140" width="220" height="220" rx="6" />
  </g>
  <g fill="#132e54">
    <rect x="150" y="180" width="120" height="6" rx="2" />
    <rect x="150" y="200" width="160" height="6" rx="2" opacity="0.4" />
    <rect x="150" y="216" width="100" height="6" rx="2" opacity="0.4" />
    <rect x="150" y="232" width="140" height="6" rx="2" opacity="0.4" />
    <text x="150" y="320" font-family="Space Grotesk, Inter, sans-serif" font-size="20" font-weight="600">forfait</text>
  </g>
  <g fill="#132e54" opacity="0.45">
    <rect x="490" y="180" width="120" height="6" rx="2" />
    <rect x="490" y="200" width="60" height="6" rx="2" />
    <rect x="490" y="216" width="180" height="6" rx="2" />
    <rect x="490" y="232" width="40" height="6" rx="2" />
    <rect x="490" y="248" width="120" height="6" rx="2" />
    <rect x="490" y="264" width="80" height="6" rx="2" />
    <text x="490" y="320" font-family="Space Grotesk, Inter, sans-serif" font-size="20" font-weight="600" fill="#132e54">régie</text>
  </g>
  <path d="M 360 250 L 440 250" stroke="#132e54" stroke-width="1.5" />
  <path d="M 430 244 L 440 250 L 430 256" stroke="#132e54" stroke-width="1.5" fill="none" />
</svg>
