<svg xmlns="http://www.w3.org/2000/svg" viewBox="0 0 800 500" preserveAspectRatio="xMidYMid slice">
  <rect width="800" height="500" fill="#fafaf8" />
  <g stroke="#132e54" stroke-width="1.2" fill="none">
    <path d="M 120 200 Q 120 160 160 160 L 360 160 Q 400 160 400 200 L 400 240 Q 400 280 360 280 L 220 280 L 180 320 L 180 280 L 160 280 Q 120 280 120 240 Z" />
    <path d="M 440 240 Q 440 200 480 200 L 660 200 Q 700 200 700 240 L 700 280 Q 700 320 660 320 L 540 320 L 500 360 L 500 320 L 480 320 Q 440 320 440 280 Z" opacity="0.5" />
  </g>
  <g fill="#132e54">
    <circle cx="170" cy="220" r="3" />
    <circle cx="195" cy="220" r="3" />
    <circle cx="220" cy="220" r="3" />
    <text x="160" y="250" font-family="Space Grotesk, Inter, sans-serif" font-size="22" font-weight="600">?</text>
    <text x="190" y="250" font-family="Space Grotesk, Inter, sans-serif" font-size="22" font-weight="600">?</text>
    <text x="220" y="250" font-family="Space Grotesk, Inter, sans-serif" font-size="22" font-weight="600">?</text>
  </g>
  <text x="120" y="120" font-family="Space Grotesk, Inter, sans-serif" font-size="32" font-weight="600" fill="#132e54">5 questions</text>
</svg>
