<svg xmlns="http://www.w3.org/2000/svg" viewBox="0 0 800 500" preserveAspectRatio="xMidYMid slice">
  <defs>
    <linearGradient id="bg" x1="0" y1="0" x2="1" y2="1">
      <stop offset="0%" stop-color="#fafaf8" />
      <stop offset="100%" stop-color="#efece5" />
    </linearGradient>
  </defs>
  <rect width="800" height="500" fill="url(#bg)" />

  <g stroke="#132e54" stroke-width="1" fill="none" opacity="0.18">
    <path d="M 0 100 L 800 100" />
    <path d="M 0 200 L 800 200" />
    <path d="M 0 300 L 800 300" />
    <path d="M 0 400 L 800 400" />
    <path d="M 100 0 L 100 500" />
    <path d="M 300 0 L 300 500" />
    <path d="M 500 0 L 500 500" />
    <path d="M 700 0 L 700 500" />
  </g>

  <g stroke="#132e54" stroke-width="1.2" fill="none">
    <circle cx="200" cy="200" r="6" />
    <circle cx="380" cy="140" r="6" />
    <circle cx="560" cy="220" r="6" />
    <circle cx="640" cy="340" r="6" />
    <circle cx="320" cy="320" r="6" />
    <circle cx="160" cy="360" r="6" />
    <path d="M 200 200 L 380 140" />
    <path d="M 380 140 L 560 220" />
    <path d="M 560 220 L 640 340" />
    <path d="M 200 200 L 320 320" />
    <path d="M 320 320 L 560 220" />
    <path d="M 320 320 L 160 360" />
    <path d="M 160 360 L 640 340" opacity="0.4" />
  </g>

  <g fill="#132e54">
    <circle cx="200" cy="200" r="3" />
    <circle cx="380" cy="140" r="3" />
    <circle cx="560" cy="220" r="3" />
    <circle cx="640" cy="340" r="3" />
    <circle cx="320" cy="320" r="3" />
    <circle cx="160" cy="360" r="3" />
  </g>

  <text x="50" y="75" font-family="Space Grotesk, Inter, sans-serif" font-size="34" font-weight="600" fill="#132e54">SEO &gt; LLM</text>
</svg>
