<svg xmlns="http://www.w3.org/2000/svg" viewBox="0 0 800 500" preserveAspectRatio="xMidYMid slice">
  <rect width="800" height="500" fill="#1a2942" />
  <g stroke="#fafaf8" stroke-width="1" fill="none" opacity="0.18">
    <path d="M 0 130 L 800 130" />
    <path d="M 0 250 L 800 250" />
    <path d="M 0 370 L 800 370" />
  </g>
  <g fill="#fafaf8">
    <rect x="120" y="160" width="140" height="50" rx="3" opacity="0.85" />
    <rect x="280" y="160" width="100" height="50" rx="3" opacity="0.55" />
    <rect x="400" y="160" width="60" height="50" rx="3" opacity="0.35" />
    <rect x="480" y="160" width="180" height="50" rx="3" opacity="0.7" />
    <rect x="120" y="220" width="80" height="50" rx="3" opacity="0.4" />
    <rect x="220" y="220" width="120" height="50" rx="3" opacity="0.6" />
    <rect x="360" y="220" width="200" height="50" rx="3" opacity="0.3" />
    <rect x="580" y="220" width="80" height="50" rx="3" opacity="0.5" />
    <rect x="120" y="280" width="60" height="50" rx="3" opacity="0.5" />
    <rect x="200" y="280" width="160" height="50" rx="3" opacity="0.3" />
    <rect x="380" y="280" width="100" height="50" rx="3" opacity="0.65" />
    <rect x="500" y="280" width="160" height="50" rx="3" opacity="0.4" />
  </g>
  <text x="120" y="120" font-family="Space Grotesk, Inter, sans-serif" font-size="34" font-weight="600" fill="#fafaf8">wordpress ?</text>
</svg>
